<svg width="81" height="33" viewBox="0 0 81 33" fill="none" xmlns="http://www.w3.org/2000/svg">
<path fill-rule="evenodd" clip-rule="evenodd" d="M7.65378 18.7939H7.56685V18.9678H7.47981V19.0549H7.39277V19.1418H7.30583V19.3158H7.21879V19.4027H7.04482V19.4898H6.87084V19.5767H6.52278V19.6637H6.43585V19.7507H4.26066V19.6637H4.08669V19.5767H3.91271V19.4898H3.82578V19.4027H3.73874V19.3158H3.6518V19.2289H3.56476V19.0549H3.47772V18.7939H3.39079V18.7069H3.30385V14.2696H3.39079V14.0956H3.47772V13.7476H3.56476V13.6605H3.6518V13.4866H3.82578V13.3995H3.91271V13.3126H3.99964V13.2255H4.08669V13.1386H4.17362V13.0517H4.34759V12.9646H4.43464V12.8777H4.69565V12.7907H6.95777V12.7037H7.04482V10.7026H7.74083V18.3592H7.6539V18.7942L7.65378 18.7939ZM23.6629 13.5735H23.4019V13.6604H23.315V13.8344H23.2279V13.9214H23.141V14.0084H23.0541V14.2694H22.88V19.8377H22.2709V19.7508H22.184V14.2694H22.2709V13.9213H22.358V13.7474H22.4449V13.4863H22.5318V13.3993H22.6189V13.3124H22.7058V13.2253H22.7928V13.1384H22.8798V13.0515H23.1408V12.9644H23.3148V12.8775H24.7938V12.9644H24.9678V13.0515H25.3159V13.1384H25.4028V13.2253H25.4898V13.3124H25.5768V13.3993H25.8378V13.2253H25.9248V13.1384H26.0988V13.0515H26.4468V12.9644H26.5338V12.8775H27.8389V12.9644H27.9259V13.0515H28.2739V13.1384H28.3609V13.2253H28.5349V13.3124H28.6218V13.4863H28.7958V13.7474H28.9698V14.2694H29.0568V14.6175H29.1438V19.7508H29.0568V19.8377H28.5348V19.7508H28.4477V14.0954H28.2738V13.9214H28.0998V13.8344H28.0128V13.6604H27.9258V13.5735H27.7518V13.4866H26.7078V13.6605H26.3598V13.7476H26.2728V13.8345H26.1858V13.9216H26.0989V14.0955H26.0119V14.2695H25.9249V19.8378H25.4029V19.7509H25.316V14.1825H25.142V14.0085H25.0551V13.7475H24.968V13.6604H24.881V13.5735H24.533V13.4866H23.6629V13.5735ZM10.351 12.8775H11.5692V12.9644H12.0042V13.0515H12.1781V13.1384H12.2651V13.2253H12.439V13.3124H12.526V13.3993H12.613V13.4863H12.7V13.5733H12.7869V13.6602H12.8739V13.9212H12.9609V14.0952H13.0479V14.4433H13.1348V18.4456H13.0479V18.7935H12.9609V18.9675H12.8739V19.2285H12.7869V19.3155H12.7V19.4024H12.613V19.4894H12.526V19.5764H12.352V19.6634H12.178V19.7503H11.83V19.8373H10.1768V19.7503H9.82886V19.6634H9.74182V19.5764H9.56784V19.4894H9.4808V19.4024H9.39376V19.3155H9.30683V19.2285H9.21978V19.1415H9.13285V19.0545H9.04592V18.9675H8.95888V18.8806H8.87194V18.7066H8.7849V18.3585H8.69797V16.2704H8.7849V16.0094H8.87194V15.8354H8.95888V15.7485H9.04592V15.6615H9.13285V15.5745H9.39387V15.4876H9.48091V15.4005H9.56795V15.3136H9.82897V15.2265H9.9159V15.0526H12.3521V14.9655H12.4392V14.2695H12.3521V14.0955H12.2652V14.0085H12.1782V13.9216H12.0912V13.8345H12.0043V13.7476H11.8303V13.6605H11.7433V13.4866H10.3511V12.8775H10.351ZM18.5296 12.8775H19.9217V12.9644H20.0957V13.0515H20.2697V13.1384H20.4437V13.2253H20.6176V13.3124H20.7046V13.3993H20.7916V13.4863H20.8786V13.6603H20.9656V13.7474H21.0525V13.9213H21.1396V14.0953H21.2265V14.2693H21.3135V18.7066H21.1396V18.7935H21.0525V19.1416H20.9656V19.3156H20.8786V19.4025H20.7916V19.4895H20.7046V19.5765H20.5306V19.6635H20.3566V19.7504H20.0086V19.8374H18.4425V19.7504H18.0075V19.6635H17.9204V19.5765H17.7464V19.4895H17.6594V19.4025H17.4854V19.3156H17.3985V19.2286H17.2245V19.1416H17.1375V18.9676H17.0505V18.7936H16.9635V18.4457H16.8766V16.1836H16.9635V16.0965H17.0505V15.9225H17.1375V15.7486H17.2245V15.6616H17.3985V15.5746H17.4854V15.4006H17.5725V15.3137H17.6594V15.2267H18.1814V15.1397H20.6176V14.2696H20.5306V14.0956H20.4437V13.9217H20.2697V13.8346H20.1828V13.7477H20.0957V13.5737H19.8347V13.4868H18.6167V13.3997H18.5296V12.8777V12.8775ZM15.5715 11.3983H15.3975V11.4854H15.2235V11.5723H15.0496V11.6592H14.9625V11.7463H14.8756V11.8332H14.7887V12.1813H14.7016V12.8774H16.6158V13.4865H14.7887V22.0131H14.7016V22.1001H14.0925V12.0073H14.1796V11.6592H14.2665V11.5723H14.3534V11.4854H14.4405V11.3114H14.5274V11.2243H14.6145V11.1374H14.7014V11.0504H14.7884V10.9634H14.9624V10.8765H15.0494V10.7895H15.3975V10.7025H17.1376V11.2246H15.5715V11.3985V11.3983ZM21.2268 4.43786H21.6618V4.52491H21.7489V6.7001H22.9669V7.13509H21.2268V4.43786ZM12.3522 5.39489H12.4393V5.04683H12.5262V4.87286H12.6132V4.78581H12.7872V4.61184H12.8743V4.52491H13.1353V4.35082H14.2664V4.52491H14.3533V4.61184H14.4404V4.69888H14.5273V4.78581H14.6143V4.87286H14.7013V5.04683H14.7883V5.13388H14.8752V5.22081H14.9622V6.43885H14.8752V6.61283H14.7883V6.7868H14.7013V6.87385H14.6143V6.96078H14.5273V7.04771H14.2663V7.13476H13.0482V7.04771H12.7872V6.96078H12.7003V6.87385H12.6134V6.69987H12.4394V6.35181H12.3523V5.39478L12.3522 5.39489ZM9.91602 7.13497H9.82908V7.22191H9.22V4.43775H9.30705V4.35071H9.91613V4.43775H10.0032V5.39478H10.8733V4.43775H10.9602V4.35071H11.5693V7.13497H11.4822V7.22191H10.9602V6.09079H9.91613V7.13487L9.91602 7.13497ZM20.3567 5.04683H18.9646V5.39489H19.0516V5.48183H20.2697V6.0909H19.0516V6.52601H20.3567V6.69998H20.4437V7.13497H20.3567V7.22191H18.4426V7.13497H18.3556V4.43775H18.4426V4.35071H20.3567V4.43775H20.4437V4.95979H20.3567V5.04672V5.04683ZM15.3974 4.43775H15.4843V4.35071H17.7466V4.95979H17.6595V5.04672H16.8765V7.13487H16.2674V5.04672H15.4843V4.95979H15.3974V4.43775ZM14.2663 0.0874869H13.8313V0.174531H13.3093V0.261463H12.8743V0.348393H12.5262V0.435437H12.0912V0.522369H11.8302V0.609413H11.4821V0.696455H11.2211V0.783387H10.9601V0.870319H10.6991V0.957361H10.4381V1.04429H10.2641V1.13134H10.0031V1.21827H9.82908V1.3052H9.56807V1.39224H9.39398V1.47918H9.22V1.56622H9.04603V1.65315H8.87205V1.74019H8.69808V1.82713H8.5241V1.91406H8.35013V2.0011H8.2632V2.08803H8.08922V2.17508H7.91525V2.26201H7.74127V2.34894H7.65434V2.43598H7.48037V2.52291H7.39332V2.60996H7.21935V2.697H7.13242V2.78393H6.95844V2.87086H6.87151V2.95791H6.69754V3.04484H6.61049V3.13188H6.52356V3.21881H6.34959V3.30586H6.26265V3.39279H6.17561V3.47972H6.08868V3.56676H5.9147V3.6537H5.82777V3.74074H5.74073V3.82767H5.6538V3.9146H5.47982V4.00164H5.39278V4.08858H5.30585V4.17562H5.2188V4.26255H5.13187V4.34948H5.04483V4.43653H4.9579V4.52357H4.87096V4.6105H4.78392V4.69754H4.69699V4.78448H4.60995V4.87152H4.52301V4.95845H4.43608V5.04538H4.34904V5.13243H4.26211V5.21936H4.17506V5.3064H4.08813V5.39333H4.00109V5.48027H3.91416V5.65424H3.82723V5.74128H3.74018V5.82822H3.65325V5.91515H3.56621V6.08912H3.47916V6.17617H3.39223V6.2631H3.3053V6.35014H3.21826V6.52412H3.13133V6.61105H3.04428V6.69809H2.95735V6.87207H2.87042V6.959H2.78338V7.13297H2.69645V7.2199H2.6094V7.39388H2.52247V7.48081H2.43554V7.65479H2.3485V7.74183H2.26156V7.9158H2.17452V8.08978H2.08759V8.26375H2.00055V8.3508H1.91361V8.52477H1.82668V8.69875H1.73964V8.87272H1.65271V9.0467H1.56566V9.22067H1.47862V9.39465H1.39169V9.56862H1.30476V9.82964H1.21771V10.0036H1.13078V10.1776H1.04374V10.4386H0.956806V10.6996H0.869874V10.8736H0.78283V11.1346H0.6959V11.4827H0.608856V11.7437H0.521924V12.0047H0.43488V12.4398H0.34795V12.7878H0.261018V13.3098H0.173974V13.7448H0.0870412V14.2668H0V18.1821H0.0870412V18.6171H0.173974V19.0521H0.261018V19.5741H0.34795V19.9222H0.43488V20.3572H0.521924V20.6182H0.608856V20.9662H0.6959V21.2272H0.78283V21.4882H0.869874V21.7492H0.956806V22.0102H1.04374V22.1842H1.13078V22.4452H1.21771V22.5322H1.30476V22.7932H1.39169V22.9671H1.47862V23.1411H1.56566V23.3151H1.65271V23.4891H1.73964V23.663H1.82668V23.837H1.91361V24.011H2.00055V24.185H2.08759V24.3589H2.17452V24.4459H2.26156V24.6199H2.3485V24.7068H2.43554V24.8808H2.52247V24.9677H2.6094V25.1417H2.69645V25.3156H2.78338V25.4027H2.87042V25.5767H2.95735V25.6637H3.04428V25.7506H3.13133V25.9247H3.21826V26.0117H3.3053V26.0986H3.39223V26.1856H3.47916V26.3596H3.56621V26.4465H3.65325V26.5335H3.74018V26.6205H3.82723V26.7945H3.91416V26.8814H4.00109V26.9685H4.08813V27.0554H4.17506V27.1423H4.26211V27.2294H4.34904V27.3163H4.43608V27.4033H4.52301V27.4903H4.60995V27.5772H4.69699V27.6642H4.78392V27.7512H4.87096V27.8382H4.9579V27.9253H5.04483V28.0122H5.13187V28.0991H5.2188V28.1862H5.30585V28.2731H5.39278V28.3601H5.47982V28.4471H5.56675V28.5341H5.74073V28.6211H5.82777V28.708H5.9147V28.795H6.00175V28.882H6.17572V28.969H6.26276V29.0559H6.3497V29.1429H6.43674V29.2299H6.61071V29.3168H6.69776V29.4039H6.78469V29.4908H6.95866V29.5777H7.04571V29.6648H7.21968V29.7518H7.30673V29.8388H7.4807V29.9258H7.56774V30.0127H7.74172V30.0998H7.91569V30.1867H8.00274V30.2736H8.17671V30.3607H8.35069V30.4476H8.52466V30.5347H8.69864V30.6216H8.87261V30.7085H9.04659V30.7956H9.22056V30.8825H9.39454V30.9695H9.56862V31.0565H9.7426V31.1434H10.0036V31.2305H10.1776V31.3174H10.4386V31.4044H10.6126V31.4914H10.8736V31.5784H11.1346V31.6653H11.3956V31.7524H11.7436V31.8393H12.0046V31.9264H12.3526V32.0133H12.7006V32.1003H13.1356V32.1873H13.3966V32.2742H18.9649V32.1873H19.226V32.1003H19.661V32.0133H20.009V31.9264H20.3571V31.8393H20.705V31.7524H20.966V31.6653H21.3141V31.5784H21.4881V31.4914H21.7491V31.4044H21.9231V31.3174H22.271V31.2305H22.3581V31.1434H22.6191V31.0565H22.7931V30.9695H22.967V30.8825H23.141V30.7956H23.315V30.7085H23.576V30.6216H23.6629V30.5347H23.8369V30.4476H24.0109V30.3607H24.1849V30.2736H24.3588V30.1867H24.5328V30.0998H24.6197V30.0127H24.7937V29.9258H24.8806V29.8388H25.0547V29.7518H25.1417V29.6648H25.3156V29.5777H25.4026V29.4908H25.5765V29.4039H25.6635V29.3168H25.8375V29.2299H25.9245V29.1429H26.0114V29.0559H26.1854V28.969H26.2723V28.882H26.3594V28.795H26.4463V28.708H26.5334V28.6211H26.7073V28.5341H26.7944V28.4471H26.8813V28.3601H26.9683V28.2731H27.0554V28.1862H27.1423V28.0991H27.2293V28.0122H27.4032V27.9253H27.4903V27.8382H27.5772V27.7512H27.6642V27.6642H27.7512V27.5772H27.8381V27.4903H27.9252V27.4033H28.0121V27.2294H28.0991V27.1423H28.1861V27.0554H28.273V26.9685H28.36V26.8814H28.447V26.7945H28.534V26.7074H28.6209V26.6205H28.7079V26.4465H28.7949V26.3596H28.882V26.2726H28.9689V26.1856H29.0559V26.0117H29.1429V25.9247H29.2299V25.8377H29.3168V25.6637H29.4038V25.5767H29.4908V25.4027H29.5777V25.3156H29.6648V25.1417H29.7517V25.0547H29.8387V24.9677H29.9257V24.7937H30.0126V24.6197H30.0997V24.5327H30.1866V24.3587H30.2735V24.1847H30.3606V24.0108H30.4475V23.9238H30.5346V23.7498H30.6215V23.5758H30.7085V23.4018H30.7955V23.2278H30.8825V23.0539H30.9694V22.7928H31.0565V22.6189H31.1434V22.4449H31.2305V22.2709H31.3174V22.0099H31.4043V21.8359H31.4914V21.5749H31.5783V21.3139H31.6653V21.0529H31.7523V20.7048H31.8392V20.4438H31.9262V20.0957H32.0132V19.7477H32.1002V19.3127H32.1872V18.7906H32.2742V18.2686H32.3611V17.3116H32.4481V15.1364H32.3611V14.1793H32.2742V13.5703H32.1872V13.0482H32.1002V12.6131H32.0132V12.3521H31.9262V11.9171H31.8392V11.6561H31.7523V11.3082H31.6653V11.0471H31.5783V10.8732H31.4914V10.5251H31.4043V10.3511H31.3174V10.0901H31.2305V9.91613H31.1434V9.74215H31.0565V9.56818H30.9694V9.3942H30.8825V9.22023H30.7955V9.04625H30.7085V8.78523H30.6215V8.6983H30.5346V8.43728H30.4475V8.35024H30.3606V8.17627H30.2735V8.00229H30.1866V7.82832H30.0997V7.74139H30.0126V7.56741H29.9257V7.48037H29.8387V7.30639H29.7517V7.21935H29.6648V7.04537H29.5777V6.95844H29.4908V6.78447H29.4038V6.69754H29.3168V6.61049H29.2299V6.43651H29.1429V6.34959H29.0559V6.26254H28.9689V6.08857H28.882V6.00164H28.7949V5.91459H28.7079V5.82766H28.6209V5.65369H28.534V5.56675H28.447V5.47971H28.36V5.39278H28.273V5.30585H28.1861V5.2188H28.0991V5.13187H28.0121V5.04483H27.9252V4.9579H27.8381V4.87096H27.7512V4.78392H27.6642V4.69699H27.5772V4.60995H27.4903V4.52301H27.4032V4.43597H27.3163V4.34893H27.2293V4.262H27.1423V4.17506H27.0554V4.08802H26.9683V4.00109H26.8813V3.91405H26.7944V3.82711H26.6204V3.74018H26.5335V3.65314H26.4464V3.56621H26.3595V3.47916H26.2724V3.39223H26.0985V3.3053H26.0114V3.21826H25.9245V3.13133H25.7505V3.04428H25.6635V2.95735H25.5765V2.87031H25.4026V2.78338H25.3156V2.69645H25.1417V2.6094H24.9677V2.52236H24.8806V2.43542H24.7067V2.34838H24.6197V2.26145H24.4458V2.17452H24.3588V2.08747H24.0978V2.00055H24.0109V1.9135H23.8369V1.82657H23.6629V1.73964H23.489V1.6526H23.315V1.56566H23.141V1.47862H22.967V1.39169H22.7931V1.30464H22.532V1.21771H22.4451V1.13078H22.1841V1.04374H21.9231V0.956806H21.7491V0.869762H21.4881V0.78283H21.2271V0.695897H20.879V0.608856H20.5309V0.521812H20.2699V0.43488H19.8349V0.347839H19.5739V0.260906H19.1389V0.173974H18.5298V0.0869298H18.0948V0H14.2666V0.0869298L14.2663 0.0874869Z" fill="#005EC4"/>
<path fill-rule="evenodd" clip-rule="evenodd" d="M4.86949 13.5735H4.52154V13.6605H4.4345V13.7476H4.34745V13.8345H4.26052V13.9216H4.17348V14.0086H4.08643V14.3567H3.9995V14.5306H3.91246V18.3589H3.9995V18.7069H4.08643V18.7939H4.17348V18.8809H4.26052V18.968H4.34745V19.055H4.69551V19.1419H6.17458V18.968H6.52264V18.8809H6.69662V18.7939H6.8707V18.533H6.95763V18.3589H7.04468V18.1849H7.13172V13.5735H7.04468V13.4866H4.86949V13.5735Z" fill="#035EC6"/>
<path fill-rule="evenodd" clip-rule="evenodd" d="M23.3149 12.9645H23.1409V13.0516H22.8799V13.1385H22.7928V13.2255H22.7058V13.3126H22.6188V13.3995H22.5318V13.4866H22.4448V13.7476H22.3578V13.9215H22.2708V14.2696H22.1837V19.751H22.2708V19.8379H22.8799V14.2696H23.0538V14.0086H23.1409V13.9215H23.2278V13.8345H23.3149V13.6605H23.4019V13.5735H23.6629V13.4866H24.533V13.5735H24.881V13.6605H24.968V13.7476H25.0551V14.0086H25.142V14.1826H25.3161V19.751H25.403V19.8379H25.925V14.2696H26.0121V14.0956H26.0991V13.9215H26.1861V13.8345H26.2731V13.7476H26.3601V13.6605H26.7081V13.4866H27.7522V13.5735H27.9263V13.6605H28.0132V13.8345H28.1002V13.9215H28.2742V14.0956H28.4482V19.751H28.5352V19.8379H29.0573V19.751H29.1443V14.6177H29.0573V14.2696H28.9703V13.7476H28.7962V13.4866H28.6223V13.3126H28.5352V13.2255H28.3612V13.1385H28.2742V13.0516H27.9263V12.9645H27.8392V12.8775H26.5341V12.9645H26.4471V13.0516H26.0991V13.1385H25.925V13.2255H25.838V13.3995H25.5771V13.3126H25.4901V13.2255H25.403V13.1385H25.3161V13.0516H24.968V12.9645H24.7939V12.8775H23.3149V12.9645Z" fill="#F4F9FD"/>
<path fill-rule="evenodd" clip-rule="evenodd" d="M50.4608 13.9216H50.2869V18.3589H50.3738V18.4459H50.4608V18.533H51.3309V18.4459H51.5049V16.7058H51.5918V16.7928H51.6789V16.8798H51.7659V17.0538H51.8529V17.2278H51.9399V17.3148H52.0269V17.4018H52.81V17.3148H52.897V17.2278H52.984V17.0538H53.071V16.8798H53.158V16.7058H53.332V18.4459H53.506V18.533H54.3761V18.4459H54.5501V13.9216H54.3761V13.8345H53.506V13.9216H53.332V14.0086H53.245V14.1826H53.158V14.3567H53.071V14.5306H52.984V14.7046H52.897V14.8787H52.81V15.0527H52.723V15.2267H52.6359V15.4006H52.549V15.5747H52.4619V15.6618H52.3749V15.5747H52.288V15.4006H52.2009V15.2267H52.1139V15.0527H52.0269V14.8787H51.9399V14.7046H51.8529V14.5306H51.7659V14.3567H51.6789V14.2696H51.5918V14.0086H51.5049V13.9216H51.3309V13.8345H50.4608V13.9216Z" fill="#0661C6"/>
<path fill-rule="evenodd" clip-rule="evenodd" d="M72.3864 13.9216H72.2993V14.0086H72.2124V18.3589H72.2993V18.4459H72.3864V18.533H73.3434V18.4459H73.4305V16.5317H73.6045V16.7058H73.6915V16.8798H73.7785V16.9668H73.8655V17.1408H73.9525V17.3148H74.0395V17.4018H74.1265V17.5758H74.2135V17.6629H74.3006V17.8368H74.3876V17.9239H74.4745V18.0979H74.5616V18.1849H74.6486V18.3589H74.7355V18.4459H74.9095V18.533H75.6926V18.4459H75.7796V18.3589H75.8667V14.0086H75.7796V13.9216H75.6056V13.8345H74.8226V13.9216H74.6486V14.0086H74.5616V15.6618H74.6486V15.7487H74.5616V15.8357H74.4745V15.6618H74.3876V15.5747H74.3006V15.4006H74.2135V15.2267H74.1265V15.1397H74.0395V14.9656H73.9525V14.8787H73.8655V14.7046H73.7785V14.6177H73.6915V14.4436H73.6045V14.2696H73.5175V14.1826H73.4305V14.0086H73.3434V13.9216H73.1694V13.8345H72.3864V13.9216Z" fill="#0661C6"/>
<path fill-rule="evenodd" clip-rule="evenodd" d="M63.8598 15.6618H63.6858V15.7487H62.9897V15.0527H63.0768V14.9656H63.2507V15.0527H63.7728V15.1396H63.8598V15.3136H63.9467V15.4876H63.8598V15.6615V15.6618ZM61.9456 13.9217H61.7717V14.0086H61.6846V18.3589H61.7717V18.4459H61.9456V18.5328H62.8157V18.4459H62.9028V18.3589H62.9897V16.7928H63.1637V16.8798H63.2506V16.9667H63.3377V17.1407H63.4246V17.4017H63.5116V17.4888H63.5986V17.7498H63.6856V17.8367H63.7725V18.0977H63.8596V18.2717H63.9465V18.4457H64.1205V18.5326H65.2516V18.4457H65.3385V18.1847H65.2516V18.0106H65.1646V17.8366H65.0776V17.6626H64.9906V17.4887H64.9037V17.3147H64.8166V17.2276H64.7297V17.0537H64.6428V16.8797H64.5557V16.7057H64.4688V16.5317H64.5557V16.4448H64.7297V16.3578H64.8166V16.2708H64.9037V16.0969H64.9906V16.0098H65.0776V15.7488H65.1646V15.0528H65.0776V14.7918H64.9906V14.6178H64.9037V14.4438H64.8166V14.3568H64.7297V14.2698H64.6428V14.1828H64.4688V14.0959H64.3817V14.0088H64.1207V13.9219H63.7727V13.8349H61.9455V13.9219L61.9456 13.9217Z" fill="#0661C6"/>
<path fill-rule="evenodd" clip-rule="evenodd" d="M7.04469 18.3588H6.95765V18.5328H6.87072V18.7938H6.69674V18.8809H6.52277V18.9678H6.1747V19.1418H4.69564V19.0549H4.34758V18.9678H4.26065V18.8809H4.1736V18.7938H4.08667V18.7069H3.99963V18.3588H3.9127V14.5306H3.99963V14.3566H4.08667V14.0086H4.1736V13.9217H4.26065V13.8346H4.34758V13.7477H4.43462V13.6606H4.52155V13.5737H4.86961V13.4868H7.0448V13.5737H7.13173V18.1851H7.0448V18.3591L7.04469 18.3588ZM7.04469 12.7035H6.95765V12.7904H4.69553V12.8775H4.43451V12.9644H4.34747V13.0514H4.17349V13.1384H4.08656V13.2253H3.99951V13.3123H3.91259V13.3993H3.82565V13.4863H3.65168V13.6603H3.56464V13.7473H3.47759V14.0954H3.39066V14.2694H3.30373V18.7067H3.39066V18.7936H3.47759V19.0546H3.56464V19.2286H3.65168V19.3155H3.73861V19.4025H3.82565V19.4895H3.91259V19.5764H4.08656V19.6635H4.26054V19.7504H6.43572V19.6635H6.52266V19.5764H6.87072V19.4895H7.04469V19.4025H7.21867V19.3155H7.30571V19.1416H7.39264V19.0546H7.47968V18.9676H7.56673V18.7936H7.65366V18.3586H7.74059V10.7021H7.04458V12.7032L7.04469 12.7035Z" fill="#F4F9FD"/>
<path fill-rule="evenodd" clip-rule="evenodd" d="M45.5884 13.9216H45.3274V18.4459H45.5014V18.533H48.2857V18.4459H48.4596V17.4018H48.2857V17.3148H46.5456V16.7058H48.1116V16.6188H48.1986V15.7487H48.1116V15.5747H46.5456V15.0527H46.6325V14.9656H46.8066V15.0527H46.8935V14.9656H48.4596V13.9216H48.2857V13.8345H45.5884V13.9216Z" fill="#0661C6"/>
<path fill-rule="evenodd" clip-rule="evenodd" d="M12.3521 18.7938H12.2652V18.8809H12.1782V18.9678H12.0912V19.0549H12.0042V19.1418H10.0031V19.0549H9.9161V18.9678H9.74213V18.8809H9.65519V18.6199H9.56826V18.5328H9.39418V16.3576H9.48122V16.1837H9.56826V16.0966H9.65519V16.0096H9.74213V15.9226H10.2642V15.8356H10.3511V15.7487H12.3522V15.8356H12.4392V18.4458H12.3522V18.7937L12.3521 18.7938ZM10.351 13.4866H11.7431V13.6605H11.8302V13.7476H12.0041V13.8345H12.0911V13.9215H12.1781V14.0085H12.265V14.0955H12.352V14.2695H12.439V14.9655H12.352V15.0525H9.91577V15.2265H9.82884V15.3136H9.56782V15.4005H9.48077V15.4875H9.39373V15.5745H9.13271V15.6615H9.04578V15.7485H8.95874V15.8354H8.8718V16.0094H8.78476V16.2704H8.69783V18.3585H8.78476V18.7066H8.8718V18.8806H8.95874V18.9675H9.04578V19.0545H9.13271V19.1415H9.21964V19.2285H9.30669V19.3154H9.39362V19.4024H9.48066V19.4894H9.5677V19.5763H9.74168V19.6634H9.82872V19.7503H10.1767V19.8373H11.8298V19.7503H12.1779V19.6634H12.3519V19.5763H12.5258V19.4894H12.6129V19.4024H12.6998V19.3154H12.7867V19.2285H12.8738V18.9675H12.9607V18.7935H13.0478V18.4456H13.1347V14.4432H13.0478V14.0952H12.9607V13.9212H12.8738V13.6602H12.7867V13.5733H12.6998V13.4863H12.6129V13.3993H12.5258V13.3124H12.4389V13.2253H12.2649V13.1384H12.178V13.0514H12.004V12.9644H11.569V12.8775H10.3509V13.4866H10.351Z" fill="#F4F9FD"/>
<path fill-rule="evenodd" clip-rule="evenodd" d="M17.5725 16.5317H17.6594V16.4448H17.7464V16.2708H17.8334V16.0968H18.0073V16.0098H18.0943V15.9229H18.2682V15.7489H20.6174V18.4461H20.5304V18.7941H20.2693V18.8811H20.1824V18.968H20.0084V19.0551H19.9215V19.142H18.3554V19.0551H18.0073V18.968H17.9203V18.7941H17.7463V18.7071H17.6593V18.3591H17.5723V16.5319L17.5725 16.5317ZM18.5295 13.3995H18.6165V13.4865H19.8346V13.5735H20.0956V13.7475H20.1826V13.8344H20.2696V13.9214H20.4435V14.0954H20.5305V14.2694H20.6175V15.1395H18.1813V15.2264H17.6593V15.3134H17.5723V15.4004H17.4853V15.5744H17.3984V15.6614H17.2244V15.7483H17.1373V15.9223H17.0504V16.0963H16.9634V16.1833H16.8764V18.4454H16.9634V18.7934H17.0504V18.9674H17.1373V19.1413H17.2244V19.2284H17.3984V19.3153H17.4853V19.4023H17.6593V19.4893H17.7463V19.5762H17.9203V19.6633H18.0073V19.7502H18.4423V19.8371H20.0084V19.7502H20.3565V19.6633H20.5305V19.5762H20.7044V19.4893H20.7915V19.4023H20.8784V19.3153H20.9655V19.1413H21.0524V18.7933H21.1394V18.7064H21.3134V14.269H21.2264V14.0951H21.1394V13.9211H21.0524V13.7471H20.9655V13.6601H20.8784V13.4861H20.7915V13.3991H20.7044V13.3121H20.6175V13.2251H20.4435V13.1381H20.2696V13.0512H20.0956V12.9642H19.9216V12.8772H18.5295V13.3993V13.3995Z" fill="#F4F9FD"/>
<path fill-rule="evenodd" clip-rule="evenodd" d="M78.9118 13.9216H78.6508V14.0086H78.4768V14.0956H78.3898V14.1826H78.2158V14.2696H78.1288V14.3567H78.0418V14.4436H77.9548V14.6177H77.8677V14.7046H77.7808V14.8787H77.6938V15.2267H77.6067V17.0538H77.6938V17.4018H77.7808V17.6629H77.8677V17.7499H77.9548V17.9239H78.0418V18.0108H78.1288V18.0979H78.2158V18.1849H78.3898V18.2719H78.4768V18.3589H78.6508V18.4459H78.9118V18.533H79.7819V18.4459H80.0429V18.3589H80.2169V18.2719H80.391V18.1849H80.4779V18.0979H80.565V18.0108H80.652V17.9239H80.7389V17.8368H80.826V17.7499H80.9129V17.5758H81V15.8357H80.9129V15.7487H79.4339V15.8357H79.3468V15.9228H79.2599V16.7058H79.3468V16.7928H79.5209V16.8798H79.6079V16.7928H79.7819V16.8798H79.869V17.1408H79.7819V17.2278H79.695V17.3148H79.5209V17.4018H79.1728V17.3148H78.9989V17.1408H78.9118V16.6188H78.8249V15.6618H78.9118V15.2267H78.9989V15.0527H79.1728V14.9656H79.6079V15.0527H79.7819V15.1397H79.869V15.2267H80.13V15.1397H80.2169V15.0527H80.304V14.9656H80.391V14.8787H80.4779V14.7917H80.565V14.7046H80.652V14.6177H80.7389V14.3567H80.652V14.2696H80.565V14.1826H80.4779V14.0956H80.304V14.0086H80.13V13.9216H79.869V13.8345H78.9118V13.9216Z" fill="#0661C6"/>
<path fill-rule="evenodd" clip-rule="evenodd" d="M68.3841 16.5317H68.4711V16.3578H68.558V16.0967H68.6451V16.0097H68.732V16.2707H68.8191V16.5317H68.906V16.7057H68.5579V16.7926H68.471V16.7057H68.3839V16.5317H68.3841ZM68.3841 13.9216H68.123V14.0955H68.0361V14.3566H67.9491V14.6176H67.8621V14.7915H67.7752V15.0526H67.6882V15.3136H67.6011V15.5746H67.5142V15.8356H67.4271V16.0096H67.3402V16.2706H67.2533V16.4446H67.1662V16.7056H67.0793V16.9666H66.9923V17.2276H66.9053V17.4016H66.8184V17.6626H66.7313V17.9237H66.6444V18.0976H66.5574V18.4457H66.7313V18.5326H67.6884V18.4457H67.7754V18.3586H67.8624V18.0976H67.9493V17.9237H68.0363V17.8366H69.2544V17.9237H69.3413V18.1847H69.4282V18.3586H69.5153V18.4457H69.6022V18.5326H70.5592V18.4457H70.6463V18.3586H70.7332V18.1847H70.6463V18.0106H70.5592V17.7496H70.4723V17.4885H70.3854V17.3146H70.2983V17.0536H70.2114V16.7925H70.1244V16.5315H70.0374V16.2705H69.9504V16.0965H69.8635V15.8355H69.7765V15.5745H69.6895V15.3135H69.6024V15.1395H69.5155V14.8785H69.4285V14.6175H69.3415V14.4435H69.2546V14.1825H69.1676V14.0085H69.0806V13.9216H68.9936V13.8345H68.3845V13.9216H68.3841Z" fill="#0661C6"/>
<path fill-rule="evenodd" clip-rule="evenodd" d="M57.9433 16.4448H58.0304V16.1838H58.1173V16.0097H58.2042V16.0967H58.2913V16.3578H58.3782V16.7058H57.9432V16.4448H57.9433ZM57.8563 13.9216H57.6823V14.0085H57.5954V14.1825H57.5084V14.4435H57.4214V14.7045H57.3345V14.9655H57.2474V15.1395H57.1605V15.4005H57.0734V15.5745H56.9865V15.9226H56.8996V16.0965H56.8125V16.3575H56.7256V16.6186H56.6386V16.8796H56.5516V17.0536H56.4647V17.4015H56.3777V17.5755H56.2907V17.8365H56.2037V18.0975H56.1168V18.4456H56.2037V18.5325H57.1607V18.4456H57.3347V18.2716H57.4216V18.0106H57.5087V17.8366H58.8138V18.0976H58.9008V18.3586H58.9877V18.4457H59.1617V18.5326H60.0318V18.4457H60.2058V18.0976H60.1188V17.8366H60.0319V17.6626H59.9449V17.4016H59.8578V17.2276H59.7709V16.9666H59.6838V16.7056H59.5969V16.4446H59.51V16.1836H59.4229V15.9226H59.336V15.6615H59.249V15.4876H59.162V15.2265H59.0751V14.9655H58.9881V14.7045H58.9011V14.5305H58.8141V14.2695H58.7272V14.0955H58.6401V13.9216H58.4661V13.8345H57.8571V13.9216H57.8563Z" fill="#0661C6"/>
<path fill-rule="evenodd" clip-rule="evenodd" d="M41.4992 13.9216H41.1511V14.0086H40.9772V14.0956H40.8901V14.1826H40.7161V14.2696H40.6291V14.3567H40.5422V14.4436H40.4551V14.6177H40.3681V14.7917H40.281V15.9228H40.3681V16.0097H40.4551V16.1838H40.5422V16.2707H40.6291V16.3578H40.7161V16.4448H40.8901V16.5317H41.0642V16.6188H41.3251V16.7058H41.9342V16.7928H42.2822V16.9668H42.3692V17.2278H42.2822V17.3148H42.0212V17.4018H41.4121V17.3148H41.0642V17.2278H40.9772V17.1408H40.7161V17.2278H40.6291V17.3148H40.5422V17.4018H40.4551V17.4889H40.3681V17.5758H40.281V17.6629H40.1941V17.7499H40.1071V18.0108H40.1941V18.0979H40.3681V18.1849H40.4551V18.2719H40.6291V18.3589H40.8901V18.4459H41.1511V18.533H42.2822V18.4459H42.5433V18.3589H42.8043V18.2719H42.8912V18.1849H43.0653V18.0979H43.1522V18.0108H43.2393V17.9239H43.3263V17.8368H43.4134V17.6629H43.5003V17.4018H43.5873V16.6188H43.5003V16.3578H43.4134V16.1838H43.3263V16.0967H43.2393V16.0097H43.1522V15.9228H43.0653V15.8357H42.8912V15.7487H42.7172V15.6618H42.2822V15.5747H41.6732V15.4877H41.4992V15.0527H41.5861V14.9656H42.3692V15.0527H42.5433V15.1397H42.8912V15.0527H42.9783V14.9656H43.0653V14.8787H43.1522V14.7917H43.2393V14.7046H43.3263V14.6177H43.4134V14.2696H43.3263V14.1826H43.1522V14.0956H42.9783V14.0086H42.8043V13.9216H42.4562V13.8345H41.4992V13.9216Z" fill="#0661C6"/>
<path fill-rule="evenodd" clip-rule="evenodd" d="M15.3973 10.7893H15.0493V10.8764H14.9623V10.9633H14.7883V11.0504H14.7013V11.1374H14.6142V11.2243H14.5272V11.3114H14.4402V11.4855H14.3532V11.5724H14.2663V11.6594H14.1792V12.0074H14.0922V22.1002H14.7013V22.0132H14.7883V13.4866H16.6154V12.8775H14.7013V12.1815H14.7883V11.8334H14.8752V11.7465H14.9623V11.6594H15.0493V11.5724H15.2233V11.4855H15.3973V11.3984H15.5714V11.2243H17.1374V10.7024H15.3973V10.7893Z" fill="#F4F9FD"/>
<path fill-rule="evenodd" clip-rule="evenodd" d="M10.3509 15.8357H10.2639V15.9228H9.74191V16.0097H9.65486V16.0967H9.56793V16.1838H9.48089V16.3578H9.39384V18.533H9.56793V18.6199H9.65486V18.8809H9.74191V18.9679H9.91588V19.055H10.0029V19.1419H12.004V19.055H12.0911V18.9679H12.1781V18.8809H12.265V18.7939H12.3521V18.4459H12.4391V15.8357H12.3521V15.7487H10.3509V15.8357Z" fill="#015EC3"/>
<path fill-rule="evenodd" clip-rule="evenodd" d="M18.2685 15.9228H18.0945V16.0097H18.0074V16.0967H17.8335V16.2707H17.7465V16.4448H17.6595V16.5317H17.5725V18.3589H17.6595V18.7069H17.7465V18.7939H17.9204V18.9679H18.0074V19.055H18.3555V19.1419H19.9216V19.055H20.0087V18.9679H20.1826V18.8809H20.2697V18.7939H20.5306V18.4459H20.6176V15.7487H18.2685V15.9228Z" fill="#015EC3"/>
<path fill-rule="evenodd" clip-rule="evenodd" d="M9.3068 4.43786H9.21987V7.22213H9.82895V7.13508H9.91588V6.09101H10.96V7.22213H11.482V7.13508H11.569V4.35081H10.96V4.43786H10.873V5.395H10.0029V4.43786H9.91588V4.35081H9.3068V4.43786Z" fill="#EBF3FB"/>
<path fill-rule="evenodd" clip-rule="evenodd" d="M18.4425 4.43786H18.3555V7.13508H18.4425V7.22213H20.3567V7.13508H20.4436V6.70009H20.3567V6.52611H19.0515V6.09101H20.2697V5.48193H19.0515V5.395H18.9645V5.04694H20.3567V4.95989H20.4436V4.43786H20.3567V4.35081H18.4425V4.43786Z" fill="#E5F0FB"/>
<path fill-rule="evenodd" clip-rule="evenodd" d="M14.2663 6.26498H14.1793V6.526H14.0923V6.69997H13.3963V6.61293H13.2223V6.526H13.1352V6.43896H13.0483V6.35202H12.9613V5.22091H13.2223V5.13398H13.3092V5.04693H13.3963V4.96H14.0923V5.04693H14.1793V5.22091H14.2663V5.39488H14.3532V6.17794H14.2663V6.26487V6.26498ZM13.1351 4.5249H12.8741V4.61183H12.7871V4.7858H12.6131V4.87285H12.5261V5.04682H12.4391V5.39488H12.3521V6.35191H12.4391V6.69997H12.6131V6.87395H12.7V6.96088H12.787V7.04781H13.048V7.13486H14.266V7.04781H14.527V6.96088H14.6141V6.87395H14.701V6.78691H14.7881V6.61293H14.875V6.43896H14.9619V5.22091H14.875V5.13398H14.7881V5.04693H14.701V4.87296H14.6141V4.78592H14.527V4.69898H14.4401V4.61194H14.3531V4.52501H14.2661V4.35092H13.135V4.52501L13.1351 4.5249Z" fill="#F1F6FB"/>
<path fill-rule="evenodd" clip-rule="evenodd" d="M15.4843 4.43786H15.3973V4.95989H15.4843V5.04694H16.2674V7.13508H16.8764V5.04694H17.6595V4.95989H17.7465V4.35081H15.4843V4.43786Z" fill="#EBF3FB"/>
<path fill-rule="evenodd" clip-rule="evenodd" d="M13.3962 5.04695H13.3091V5.134H13.2222V5.22093H12.9611V6.35204H13.0481V6.43909H13.1351V6.52613H13.2222V6.61306H13.3962V6.7001H14.0922V6.52613H14.1792V6.265H14.2663V6.17807H14.3532V5.39501H14.2663V5.22093H14.1792V5.04695H14.0922V4.95991H13.3962V5.04695Z" fill="#065BC2"/>
<path fill-rule="evenodd" clip-rule="evenodd" d="M21.2267 7.13509H22.9669V6.7001H21.7487V4.52491H21.6617V4.43787H21.2267V7.13509Z" fill="#F4F9FD"/>
</svg>
